<svg xmlns="http://www.w3.org/2000/svg">

    <symbol id="facebook" viewBox="0 0 12 20">
        <path d="M10.7725 11.25L11.3429 7.63047H7.77636V5.28164C7.77636 4.29141 8.27457 3.32617 9.8719
        3.32617H11.4933V0.244531C11.4933 0.244531 10.0219 0 8.61514 0C5.67801 0 3.75816 1.73359 3.75816
        4.87187V7.63047H0.493301V11.25H3.75816V20H7.77636V11.25H10.7725Z"
        />
    </symbol>

    <symbol id="instagram" viewBox="0 0 20 20">
        <path d="M9.99776 15.1277C7.15943 15.1277 4.87002 12.8383 4.87002 10C4.87002 7.16166 7.15943 4.87225 9.99776 4.87225C12.8361
        4.87225 15.1255 7.16166 15.1255 10C15.1255 12.8383 12.8361 15.1277 9.99776 15.1277ZM9.99776 6.6663C8.16356 6.6663 6.66406 
         8.16133 6.66406 10C6.66406 11.8387 8.15909 13.3337 9.99776 13.3337C11.8364 13.3337 13.3315 11.8387 13.3315 10C13.3315 8.16133
         11.832 6.6663 9.99776 6.6663ZM16.5313 15.3375C16.5313 14.6725 15.9958 14.1415 15.3353 14.1415C14.6703 14.1415 14.1392 14.677
         14.1392 15.3375C14.1392 15.998 14.6748 16.5335 15.3353 16.5335C15.9958 16.5335 16.5313 15.998 16.5313 15.3375ZM19.9275
         14.1236C19.8516 15.7258 19.4857 17.1449 18.3119 18.3142C17.1427 19.4834 15.7235 19.8494 14.1214 19.9297C12.4702 20.0234 
        7.52092 20.0234 5.86968 19.9297C4.272 19.8538 2.85284 19.4879 1.67912 18.3186C0.505407 17.1494 0.143921 15.7302 0.0635904
         14.1281C-0.0301283 12.4768 -0.0301283 7.52761 0.0635904 5.87638C0.139458 4.27424 0.505407 2.85507 1.67912 1.68582C2.85284
        0.516567 4.26754 0.15062 5.86968 0.0702896C7.52092 -0.0234299 12.4702 -0.0234299 14.1214 0.0702896C15.7235 0.146156
       17.1427 0.512104 18.3119 1.68582C19.4812 2.85507 19.8471 4.27424 19.9275 5.87638C20.0212 7.52761 
       20.0212 12.4724 19.9275 14.1236ZM17.7943 4.10465C17.4462 3.22995 16.7723 2.55606 15.8931 2.2035C14.5766 
       1.68136 11.4526 1.80185 9.99776 1.80185C8.54289 1.80185 5.41448 1.68582 4.10242 2.2035C3.22771 2.5516 
       2.55383 3.22548 2.20127 4.10465C1.67912 5.42118 1.79962 8.54513 1.79962 10C1.79962 11.4549 1.68358 
       14.5833 2.20127 15.8953C2.54937 16.7701 3.22325 17.4439 4.10242 17.7965C5.41894 18.3186 8.54289 
       18.1981 9.99776 18.1981C11.4526 18.1981 14.5811 18.3142 15.8931 17.7965C16.7678 17.4484 17.4417 
       16.7745 17.7943 15.8953C18.3164 14.5788 18.1959 11.4549 18.1959 10C18.1959 8.54513 18.3164
        5.41671 17.7943 4.10465Z"/>
    </symbol>

    <symbol id="twitter-icon" viewBox="0 0 20 18">
      <path d="M17.9441 4.92638C17.9568 5.10403 17.9568 5.28173 17.9568 5.45938C17.9568 10.8781 13.8325 17.1218 6.29441
       17.1218C3.97207 17.1218 1.81473 16.4492 0 15.2817C0.329961 15.3198 0.647187 15.3325 0.989844 15.3325C2.90605 15.3325
        4.67004 14.6853 6.07867 13.5812C4.27664 13.5431 2.76648 12.3629 2.24617 10.7386C2.5 10.7766 2.75379 10.802 3.02031
         10.802C3.38832 10.802 3.75637 10.7512 4.09898 10.6624C2.22082 10.2817 0.812148 8.63196 0.812148 6.63958V6.58884C1.35781
          6.89341 1.99238 7.08376 2.66492 7.10911C1.56086 6.37306 0.837539 5.11673 0.837539 3.6954C0.837539 2.93399 1.04055
           2.23603 1.3959 1.62688C3.41367 4.11419 6.44668 5.73853 9.84766 5.91622C9.78422 5.61165 9.74613 5.29442 9.74613
            4.97716C9.74613 2.71825 11.5736 0.878174 13.8451 0.878174C15.0253 0.878174 16.0913 1.3731 16.84 2.17259C17.7664 
            1.99493 18.6547 1.65228 19.4416 1.18274C19.137 2.13454 18.4898 2.93403 17.6395 3.44161C18.4644 3.35282 19.2639 
            3.12435 19.9999 2.80712C19.4416 3.61927 18.7436 4.34259 17.9441 4.92638Z" />
    </symbol>
</svg>